<?xml version="1.0" encoding="utf-8"?>
<!-- Generator: Adobe Illustrator 26.5.0, SVG Export Plug-In . SVG Version: 6.00 Build 0)  -->
<svg version="1.1" id="Layer_1" xmlns="http://www.w3.org/2000/svg" xmlns:xlink="http://www.w3.org/1999/xlink" x="0px" y="0px"
	 viewBox="0 0 1000 1000" style="enable-background:new 0 0 1000 1000;" xml:space="preserve">
<style type="text/css">
	.st0{display:none;fill:#F99E23;}
	.st1{display:none;fill:#FFFFFF;}
</style>
<g>
	<path d="M398.4,494.4C342.9,542.6,278.7,602.3,255.7,627l-41.9,45l59.6,36.3C345,752,446.7,755.1,523.8,716
		c104.8-53.2,104.7-52.7,37.5-186.1l-62-123.2L398.4,494.4z"/>
	<path d="M694.7,778.9c-19.5-38.2-39.6-69.5-44.5-69.5s-69.5,41.2-143.4,91.5C392.1,879,299.9,912.4,222.4,902.6
		c78.9,54.5,174.5,86.4,277.6,86.4c112,0,215.1-37.7,297.6-101C753,871.2,724.9,838.3,694.7,778.9z"/>
	<path d="M325.1,74.9c132-1.3,196.3,5.2,219.5,22.2c18.1,13.2,113.1,178.3,211.2,366.8c81.9,157.4,127.1,243,160.1,293.5
		c46.3-74.8,73.1-162.9,73.1-257.4c0-270.1-219-489.1-489.1-489.1c-88.5,0-171.5,23.5-243.1,64.6L325.1,74.9z"/>
	<path d="M88,706c156.8-134.7,257-236.4,306.1-310.6l52.3-78.9l-32.8-64.3c-44.5-87.1-82.7-117.6-186.8-148.9l-9.1-2.7
		C92.6,189.1,10.9,335,10.9,500c0,81.2,19.8,157.8,54.9,225.3C72.2,719.6,79.6,713.2,88,706z"/>
</g>
<circle class="st0" cx="462.8" cy="499.2" r="314.6"/>
<path id="path2341_00000154409602628001942050000017690127605581868944_" class="st1" d="M230.2,738.4c-18.8-12-43.6-32.4-55.2-45.4
	c-20.7-23.3-20.4-24.3,22.7-61.3c100.8-86.6,165.3-152,196.9-199.8l33.6-50.8l-21.1-41.3c-28.6-56-53.2-75.6-120.1-95.8L230.2,227
	l120-1.2c84.9-0.8,126.2,3.4,141.2,14.3c11.6,8.5,72.8,114.7,135.9,235.9c109.6,210.6,116.9,221.5,164.3,244.3
	c60.1,28.9,45,38.7-59.5,38.7c-82.6,0-111.3-16-144.1-80.3c-12.5-24.6-25.4-44.7-28.7-44.7s-44.7,26.5-92.2,58.9
	C364.8,762.4,290.4,776.8,230.2,738.4z M478.1,638.1c67.4-34.2,67.3-33.9,24.1-119.7l-39.9-79.2l-64.9,56.4
	c-35.7,31-77,69.4-91.8,85.3l-26.9,28.9l38.3,23.4C363.1,661.2,428.5,663.3,478.1,638.1z"/>
</svg>
